<svg version="1.1" id="Layer_1" xmlns="http://www.w3.org/2000/svg" xmlns:xlink="http://www.w3.org/1999/xlink" x="0px" y="0px"
	 width="100%" viewBox="0 0 427 257" enable-background="new 0 0 427 257" xml:space="preserve">
<path fill="#212121" opacity="1.000000" stroke="none" 
	d="
M154.000000,1.000000 
	C167.020889,1.000000 180.041794,1.000000 193.531342,1.444183 
	C194.667450,8.135441 194.787979,14.500779 196.108307,20.606672 
	C199.601257,36.759808 202.730469,53.079914 207.700760,68.797134 
	C211.626678,81.211853 218.073135,92.829140 223.393082,104.803734 
	C224.302628,106.851044 226.161911,109.021202 222.376083,110.658386 
	C219.238083,110.574356 216.489029,110.443451 213.152664,110.284584 
	C213.152664,105.809837 213.152664,101.261475 213.152664,96.429474 
	C211.133560,96.553947 209.716187,96.641327 208.233719,96.732712 
	C208.233719,108.842346 208.233719,120.603447 208.233719,132.485992 
	C209.976303,132.485992 211.491669,132.485992 213.258789,132.485992 
	C213.258789,128.305298 213.496384,124.466576 213.193039,120.671097 
	C212.879532,116.748573 214.667603,115.651436 218.164139,115.891785 
	C223.585922,116.264473 229.015091,116.530045 234.945435,116.869942 
	C234.945435,121.816200 234.945435,127.252693 234.945435,133.951660 
	C237.253174,132.653412 238.719406,131.828568 240.515991,131.055939 
	C243.835022,134.289963 246.732239,137.565491 249.853867,140.611023 
	C251.256058,141.979034 253.106949,142.887146 254.835205,144.466095 
	C254.924240,152.876236 255.021255,160.825607 254.896912,168.771500 
	C254.846680,171.981964 256.209778,172.347519 259.325256,171.259720 
	C259.325256,166.880890 259.325256,162.442871 259.671112,158.017502 
	C262.624725,159.354477 265.232513,160.678802 267.915161,162.449936 
	C267.990021,165.809006 267.990021,168.721252 267.990021,172.228302 
	C269.970886,171.701538 271.317047,171.343567 273.048309,170.994141 
	C276.286987,173.124191 279.196838,175.174530 281.984955,177.378830 
	C299.863129,191.513351 318.728119,204.224289 339.721252,213.130219 
	C353.663849,219.045074 368.119934,224.113968 382.779175,227.873032 
	C397.574554,231.667038 412.904327,233.377014 428.000000,236.000000 
	C428.000000,243.275558 428.000000,250.551102 428.000000,258.000000 
	C416.979584,258.000000 405.958466,258.000000 394.381104,257.637512 
	C391.715790,256.521973 389.651001,255.592957 387.489349,255.048737 
	C380.918915,253.394562 374.102295,252.473557 367.759521,250.208588 
	C352.810669,244.870422 338.032501,239.040665 323.275482,233.182602 
	C307.736023,227.013947 294.054535,217.512482 280.634399,207.837631 
	C270.448792,200.494614 261.053192,192.010513 251.657028,183.640198 
	C247.947769,180.335892 245.190018,175.963409 242.427277,171.983154 
	C245.372940,171.045288 250.752014,174.125198 249.385529,166.996948 
	C243.769882,166.996948 238.541702,166.996948 232.899872,166.996948 
	C232.899872,158.378479 232.899872,150.168304 232.899872,141.654938 
	C231.220322,141.892899 230.014420,142.063766 228.343857,142.300461 
	C228.343857,147.418732 228.343857,152.205841 227.977509,156.966766 
	C225.061478,153.922287 222.511780,150.903992 220.062378,147.552856 
	C219.701019,146.012711 219.597137,144.258423 218.720779,143.685257 
	C212.134323,139.377640 205.515076,139.990143 199.017212,143.712296 
	C196.715576,139.745850 194.431168,136.168213 192.397949,132.318878 
	C195.134354,130.537079 197.619537,129.026962 200.466782,127.296844 
	C199.078033,125.465431 198.050430,124.110283 196.999023,122.723747 
	C189.573441,129.344086 181.813202,129.825302 175.617569,124.384476 
	C170.519363,119.907372 169.659164,112.701157 173.510818,106.735374 
	C177.751297,100.167374 185.378540,99.415062 196.360748,104.641457 
	C197.270187,103.445091 198.216705,102.199974 199.219345,100.881027 
	C191.951660,94.919525 184.371460,93.841743 176.048767,96.932137 
	C162.788239,66.052055 156.622971,33.933544 154.000000,1.000000 
z"/>
<path fill="#242424" opacity="1.000000" stroke="none" 
	d="
M428.000000,235.531342 
	C412.904327,233.377014 397.574554,231.667038 382.779175,227.873032 
	C368.119934,224.113968 353.663849,219.045074 339.721252,213.130219 
	C318.728119,204.224289 299.863129,191.513351 281.984955,177.378830 
	C279.196838,175.174530 276.286987,173.124191 272.943298,170.541840 
	C272.657074,159.281708 269.959839,158.979477 282.797058,159.003769 
	C283.792023,159.005646 284.814941,158.996643 285.777588,158.781311 
	C290.164703,157.800003 292.499695,154.349792 292.088074,149.420395 
	C291.718750,144.997650 289.316650,142.207916 284.860229,141.984039 
	C279.418823,141.710663 273.953217,141.918991 267.840271,141.918991 
	C267.840271,148.786789 267.840271,155.394943 267.840271,162.003113 
	C265.232513,160.678802 262.624725,159.354477 259.578217,157.557693 
	C259.139465,152.072769 259.139465,147.060318 259.139465,142.047852 
	C258.738251,141.770081 258.337006,141.492294 257.935791,141.214508 
	C256.875275,142.144318 255.814758,143.074127 254.754242,144.003937 
	C253.106949,142.887146 251.256058,141.979034 249.853867,140.611023 
	C246.732239,137.565491 243.835022,134.289963 240.442688,130.592102 
	C240.039047,119.000641 240.039047,107.925240 240.039047,96.711639 
	C238.081558,96.711639 236.669479,96.711639 235.019409,96.711639 
	C234.931152,98.227371 234.802200,99.516205 234.789459,100.806190 
	C234.675873,112.311455 234.681900,112.311516 222.765045,110.611526 
	C226.161911,109.021202 224.302628,106.851044 223.393082,104.803734 
	C218.073135,92.829140 211.626678,81.211853 207.700760,68.797134 
	C202.730469,53.079914 199.601257,36.759808 196.108307,20.606672 
	C194.787979,14.500779 194.667450,8.135441 194.000000,1.444183 
	C205.687561,1.000000 217.375122,1.000000 229.531342,1.439048 
	C230.332611,4.827232 230.867188,7.769772 230.963776,10.726620 
	C231.448975,25.580980 235.257935,39.833782 240.088226,53.642975 
	C244.448959,66.109711 250.665085,77.925102 255.995453,90.057411 
	C256.846558,91.994606 257.343201,94.087524 257.592529,96.228683 
	C255.214188,96.348907 253.247040,96.348907 251.120819,96.348907 
	C251.120819,108.727638 251.120819,120.696259 251.120819,132.893997 
	C259.412079,132.893997 267.361816,132.705734 275.295258,132.983337 
	C278.635986,133.100235 278.492767,131.045044 279.214386,129.034668 
	C281.219391,130.389633 282.957092,131.615829 284.510193,133.042953 
	C289.236420,137.385864 293.891388,141.806305 298.420044,146.600754 
	C296.929413,154.002136 299.045349,156.978012 306.083160,157.830597 
	C308.229340,158.090591 310.560059,157.672684 312.520599,158.369217 
	C314.293304,158.999023 316.978088,160.782608 316.926971,161.955673 
	C316.849548,163.731354 315.120422,166.177231 313.437622,167.003632 
	C308.077667,169.635864 303.494232,167.203598 299.262878,163.387283 
	C298.291840,164.440659 297.444244,165.360092 296.622162,166.251892 
	C304.029419,174.849182 315.341187,174.515320 321.826263,165.834961 
	C324.184418,166.262802 326.118439,166.630539 328.163818,167.399719 
	C327.908142,170.771988 328.839386,172.382416 332.206390,171.944305 
	C333.770355,171.740784 335.398376,172.029892 337.052979,172.442337 
	C337.591553,173.432938 337.935272,174.377670 338.578522,174.675568 
	C347.678284,178.889664 356.634155,183.507523 366.001556,187.024307 
	C375.242828,190.493774 384.785797,193.396347 394.423981,195.509781 
	C405.485413,197.935287 416.797058,199.219818 428.000000,201.000000 
	C428.000000,212.354233 428.000000,223.708450 428.000000,235.531342 
z"/>
<path fill="#292929" opacity="1.000000" stroke="none" 
	d="
M258.003723,96.108452 
	C257.343201,94.087524 256.846558,91.994606 255.995453,90.057411 
	C250.665085,77.925102 244.448959,66.109711 240.088226,53.642975 
	C235.257935,39.833782 231.448975,25.580980 230.963776,10.726620 
	C230.867188,7.769772 230.332611,4.827232 230.000000,1.439048 
	C240.687561,1.000000 251.375122,1.000000 262.531342,1.436457 
	C264.204346,9.689718 264.989105,17.599211 266.691589,25.305973 
	C271.834564,48.587135 280.972137,70.187813 294.787872,89.733688 
	C295.875702,91.272644 296.281067,93.293976 296.701538,95.281372 
	C294.854187,96.040680 293.185822,96.399414 291.786713,97.218224 
	C287.579102,99.680634 285.254944,103.279831 285.867889,108.344124 
	C286.455872,113.202110 290.106812,114.870842 294.149536,115.677902 
	C296.887878,116.224556 299.768341,116.080536 302.587219,116.197014 
	C305.973083,116.336914 309.170502,117.093903 309.610870,121.042801 
	C310.076782,125.220833 306.990509,126.776398 303.541107,127.625534 
	C297.351624,129.149200 292.159851,127.113228 287.697540,122.543900 
	C286.392792,124.043236 285.363281,125.226303 284.359833,126.379417 
	C291.969849,134.477081 303.463470,135.855194 311.075165,129.899277 
	C314.796265,126.987617 315.669861,123.142433 314.942474,118.772949 
	C314.244354,114.579323 311.309082,112.563393 307.420807,111.920982 
	C304.163879,111.382881 300.718170,111.654755 297.596802,110.743393 
	C295.438293,110.113167 292.350830,108.324089 292.039520,106.621208 
	C291.411957,103.188553 294.484344,100.857063 297.639954,101.182655 
	C301.567383,101.587875 305.359619,103.303513 309.180634,104.828117 
	C312.688599,109.223274 316.325470,113.162285 319.715302,117.303490 
	C321.089478,118.982239 321.925262,121.101677 322.860748,123.354492 
	C321.955658,124.641296 321.195831,125.594208 320.455261,126.523018 
	C327.483215,134.453720 335.756805,134.684082 345.002380,132.004852 
	C350.690002,135.432953 355.773560,139.339737 361.474518,141.837219 
	C372.161835,146.519104 382.982697,151.166855 394.166016,154.369080 
	C405.174347,157.521149 416.700867,158.863541 428.000000,161.000000 
	C428.000000,174.020889 428.000000,187.041794 428.000000,200.531342 
	C416.797058,199.219818 405.485413,197.935287 394.423981,195.509781 
	C384.785797,193.396347 375.242828,190.493774 366.001556,187.024307 
	C356.634155,183.507523 347.678284,178.889664 338.578522,174.675568 
	C337.935272,174.377670 337.591553,173.432938 337.511078,172.351379 
	C342.204407,171.913773 346.495270,171.913773 350.974060,171.913773 
	C350.974060,170.114059 350.974060,168.720993 350.974060,166.990677 
	C344.877380,166.990677 339.103943,166.990677 333.385284,166.990677 
	C332.526245,159.627869 332.526245,159.627869 344.765747,158.174377 
	C344.765747,156.861633 344.765747,155.521805 344.765747,154.302750 
	C340.735260,154.302750 337.012482,154.302750 333.280426,154.302750 
	C332.460663,146.042160 332.460663,146.042160 340.647858,146.043381 
	C342.645905,146.043686 344.650421,145.941666 346.640533,146.067276 
	C349.948578,146.276062 350.209778,144.671051 349.273499,142.173950 
	C342.271454,142.173950 335.396576,142.173950 328.052429,142.173950 
	C328.052429,150.717163 328.052429,158.857727 328.052429,166.998291 
	C326.118439,166.630539 324.184418,166.262802 321.917969,165.430023 
	C322.502045,157.794037 320.056702,154.660828 312.976868,153.984451 
	C310.823486,153.778748 308.548462,154.008057 306.543091,153.367935 
	C305.051483,152.891800 302.692261,151.075378 302.855408,150.312790 
	C303.202667,148.689240 304.846130,146.243744 306.125916,146.136597 
	C309.258301,145.874359 312.477142,146.854385 315.678955,147.118454 
	C317.180786,147.242340 318.723724,146.867493 320.248047,146.718674 
	C312.039398,138.841141 304.809357,139.149460 298.574097,146.196579 
	C293.891388,141.806305 289.236420,137.385864 284.510193,133.042953 
	C282.957092,131.615829 281.219391,130.389633 279.002502,128.717300 
	C276.887390,128.048126 275.340485,127.490967 273.783630,127.461555 
	C268.024567,127.352798 262.262177,127.418289 256.283875,127.418289 
	C256.189148,126.153748 256.093567,125.357773 256.075409,124.560036 
	C255.909683,117.270851 256.129517,117.027451 263.270172,116.895943 
	C265.718475,116.850853 268.168304,116.888786 271.004913,116.888786 
	C270.883606,114.794792 270.794434,113.255112 270.704926,111.710175 
	C265.651611,111.710175 261.044922,111.710175 256.325745,111.710175 
	C256.325745,108.730240 256.325745,105.492302 256.325745,101.888748 
	C262.970947,101.888748 269.374878,101.888748 276.039825,101.888748 
	C276.039825,99.954338 276.039825,98.391891 276.039825,96.108452 
	C269.850739,96.108452 263.927216,96.108452 258.003723,96.108452 
M373.654419,160.465027 
	C374.320526,159.228607 374.986633,157.992188 375.652740,156.755783 
	C374.702484,156.603302 373.752197,156.450821 372.801941,156.298325 
	C372.925079,157.577332 373.048218,158.856323 373.654419,160.465027 
z"/>
<path fill="#0F0F0F" opacity="1.000000" stroke="none" 
	d="
M16.000000,1.000000 
	C24.354233,1.000000 32.708466,1.000000 41.531429,1.465694 
	C42.156815,23.518688 44.982948,44.844967 49.611298,65.844528 
	C53.349197,82.803978 57.800953,99.671349 63.127350,116.195549 
	C67.691971,130.356445 73.690300,144.082932 79.590469,157.770554 
	C81.658554,162.568237 85.321342,166.678497 88.119347,171.499847 
	C87.653267,173.641434 87.044533,175.384918 87.039009,177.130325 
	C86.999367,189.656631 85.589142,189.931229 99.049332,190.510376 
	C103.144463,197.063690 106.966705,203.433258 111.278252,209.452347 
	C118.962776,220.180206 126.955170,230.687256 134.794754,241.304428 
	C138.889603,246.850098 142.933243,252.433594 147.000000,258.000000 
	C135.645767,258.000000 124.291542,258.000000 112.425110,257.654663 
	C111.383095,256.482574 110.897766,255.623123 110.316795,254.834091 
	C102.162743,243.760422 93.441353,233.055099 85.983086,221.531982 
	C78.059959,209.290619 70.991936,196.455154 64.180885,183.546524 
	C57.839825,171.528595 51.463177,159.402679 46.637947,146.739136 
	C37.662445,123.183411 29.668129,99.276604 24.803141,74.399521 
	C20.055548,50.122730 16.694689,25.735739 16.000000,1.000000 
z"/>
<path fill="#0C0C0C" opacity="1.000000" stroke="none" 
	d="
M15.527336,1.000000 
	C16.694689,25.735739 20.055548,50.122730 24.803141,74.399521 
	C29.668129,99.276604 37.662445,123.183411 46.637947,146.739136 
	C51.463177,159.402679 57.839825,171.528595 64.180885,183.546524 
	C70.991936,196.455154 78.059959,209.290619 85.983086,221.531982 
	C93.441353,233.055099 102.162743,243.760422 110.316795,254.834091 
	C110.897766,255.623123 111.383095,256.482574 111.956451,257.654663 
	C99.979103,258.000000 87.958214,258.000000 75.461456,257.632996 
	C73.098068,253.838364 71.412277,250.279572 69.285393,247.007492 
	C62.775101,236.991821 55.372124,227.483246 49.645088,217.048187 
	C40.231594,199.896118 31.018461,182.533798 23.301134,164.580811 
	C16.305185,148.305969 11.492034,131.098236 5.534008,114.366791 
	C4.482554,111.414093 2.534176,108.780800 0.999999,106.000000 
	C1.000000,70.999969 1.000000,35.999931 1.000000,1.000000 
	C5.756128,1.000000 10.405401,1.000000 15.527336,1.000000 
z"/>
<path fill="#1A1A1A" opacity="1.000000" stroke="none" 
	d="
M288.000000,258.000000 
	C271.979095,258.000000 255.958206,258.000000 239.460999,257.633362 
	C238.198074,256.108215 237.616058,254.713379 236.593140,253.827866 
	C226.706146,245.268967 216.234619,237.313065 206.948715,228.152344 
	C197.661331,218.990143 189.233795,208.895004 180.993973,198.750198 
	C173.393356,189.392441 166.371658,179.546295 159.416519,169.688416 
	C154.188034,162.277832 149.468643,154.508026 144.613281,146.575073 
	C147.974197,136.965805 151.082703,127.656212 150.010773,117.559570 
	C148.818054,106.325287 145.143051,96.368324 135.288177,89.800346 
	C128.940063,85.569504 122.396530,81.631866 115.864540,77.226097 
	C115.019394,74.902168 113.960449,72.975433 113.531067,70.917343 
	C111.613388,61.725624 109.694313,52.527058 108.128159,43.271336 
	C106.807487,35.466434 105.898987,27.588301 104.944893,19.725977 
	C104.189018,13.497039 103.640556,7.242932 103.000000,1.000000 
	C112.354225,1.000000 121.708458,1.000000 131.531342,1.462537 
	C132.333298,7.205962 132.394028,12.521358 133.057358,17.760462 
	C134.384232,28.240538 135.473770,38.800533 137.684906,49.107956 
	C141.749390,68.055077 146.849655,86.768860 154.769897,104.539818 
	C159.282211,114.664291 164.345901,124.541878 169.006042,134.602570 
	C170.011871,136.774063 170.350830,139.254440 170.546188,141.685226 
	C168.817398,141.777908 167.539398,141.777908 166.125839,141.777908 
	C166.125839,151.946442 166.125839,161.667099 166.125839,171.860077 
	C173.110962,171.860077 179.875534,171.959885 186.629196,171.733765 
	C187.473404,171.705505 188.259903,169.954041 189.401978,169.066803 
	C190.638840,170.072357 191.632339,170.944122 192.442123,171.962036 
	C205.132797,187.914276 217.542953,204.179657 233.602600,216.981110 
	C247.181458,227.805084 261.216705,238.057358 275.077179,248.526611 
	C279.338654,251.745453 283.689880,254.845535 288.000000,258.000000 
z"/>
<path fill="#1D1D1D" opacity="1.000000" stroke="none" 
	d="
M288.468658,258.000000 
	C283.689880,254.845535 279.338654,251.745453 275.077179,248.526611 
	C261.216705,238.057358 247.181458,227.805084 233.602600,216.981110 
	C217.542953,204.179657 205.132797,187.914276 192.442123,171.962036 
	C191.632339,170.944122 190.638840,170.072357 189.295410,168.795441 
	C188.573273,167.968750 188.286530,167.479202 187.956787,166.638458 
	C185.810562,163.786972 183.707367,161.286682 181.732697,158.368439 
	C181.861221,156.725021 181.861221,155.499557 181.861221,154.331085 
	C178.227203,154.331085 174.865295,154.331085 171.228424,154.186783 
	C170.748566,154.012939 170.543671,153.983414 170.266571,153.519821 
	C170.194382,150.965149 170.194382,148.844574 170.194382,146.193085 
	C175.968124,146.193085 181.357071,146.193085 187.026596,146.193085 
	C186.895645,144.417847 186.805771,143.199371 186.687241,141.592545 
	C181.250351,141.592545 176.123657,141.592545 170.996979,141.592545 
	C170.350830,139.254440 170.011871,136.774063 169.006042,134.602570 
	C164.345901,124.541878 159.282211,114.664291 154.769897,104.539818 
	C146.849655,86.768860 141.749390,68.055077 137.684906,49.107956 
	C135.473770,38.800533 134.384232,28.240538 133.057358,17.760462 
	C132.394028,12.521358 132.333298,7.205962 132.000000,1.462537 
	C139.020950,1.000000 146.041901,1.000000 153.531433,1.000000 
	C156.622971,33.933544 162.788239,66.052055 175.845169,97.188751 
	C167.413483,103.560883 164.067810,111.216171 166.742065,119.356850 
	C169.502777,127.760628 174.659668,133.716522 184.841492,133.394043 
	C187.282608,133.316711 189.711990,132.868317 192.146759,132.590576 
	C194.431168,136.168213 196.715576,139.745850 198.923492,144.041443 
	C195.575836,148.406769 192.265076,152.623978 193.350677,157.502045 
	C196.233994,170.457947 203.619995,174.284302 215.873199,171.811523 
	C221.010864,178.684555 225.445923,185.825119 231.296722,191.508118 
	C241.267227,201.192657 252.008469,210.102081 262.642151,219.081039 
	C277.564728,231.681458 294.585754,241.021194 311.756104,250.112610 
	C316.291321,252.513931 320.591766,255.358795 325.000000,258.000000 
	C312.979095,258.000000 300.958221,258.000000 288.468658,258.000000 
z"/>
<path fill="#131313" opacity="1.000000" stroke="none" 
	d="
M88.255920,171.102661 
	C85.321342,166.678497 81.658554,162.568237 79.590469,157.770554 
	C73.690300,144.082932 67.691971,130.356445 63.127350,116.195549 
	C57.800953,99.671349 53.349197,82.803978 49.611298,65.844528 
	C44.982948,44.844967 42.156815,23.518688 42.000080,1.465694 
	C52.354229,1.000000 62.708454,1.000000 73.545441,1.421740 
	C75.341385,14.016326 76.472336,26.212208 78.007568,38.356983 
	C80.779884,60.287987 85.683449,81.739716 93.051987,102.834152 
	C89.757370,105.756950 86.465660,108.239960 83.527176,111.087471 
	C79.527428,114.963387 79.839470,123.236633 83.840454,125.648346 
	C87.828949,128.052521 93.687439,127.341415 97.885757,124.335503 
	C99.830597,122.943024 102.256546,121.211777 104.391373,121.305046 
	C108.884956,121.501373 113.330353,122.800415 118.343109,123.750710 
	C108.586159,136.154663 95.737427,146.931427 96.181839,164.255798 
	C94.980919,165.774597 93.779999,167.293396 92.579079,168.812210 
	C92.865967,169.055695 93.152855,169.299164 93.439735,169.542648 
	C91.711800,170.062653 89.983864,170.582657 88.255920,171.102661 
z"/>
<path fill="#323232" opacity="1.000000" stroke="none" 
	d="
M428.000000,89.000000 
	C428.000000,97.020897 428.000000,105.041801 427.580627,113.529182 
	C410.684174,111.650528 395.069763,107.264175 380.293549,98.951195 
	C363.281219,89.380211 349.082092,76.995773 338.078827,61.220901 
	C332.103516,52.654408 328.065094,42.734039 323.182983,33.408665 
	C317.871277,23.262743 316.097015,12.214766 315.000000,1.000000 
	C323.020905,1.000000 331.041809,1.000000 339.533203,1.410830 
	C341.682404,8.752075 342.533234,16.018480 345.185516,22.553797 
	C355.750519,48.586151 372.650208,69.196152 399.079132,80.335915 
	C408.298767,84.221977 418.336090,86.167992 428.000000,89.000000 
z"/>
<path fill="#080808" opacity="1.000000" stroke="none" 
	d="
M0.999999,106.468658 
	C2.534176,108.780800 4.482554,111.414093 5.534008,114.366791 
	C11.492034,131.098236 16.305185,148.305969 23.301134,164.580811 
	C31.018461,182.533798 40.231594,199.896118 49.645088,217.048187 
	C55.372124,227.483246 62.775101,236.991821 69.285393,247.007492 
	C71.412277,250.279572 73.098068,253.838364 74.992798,257.632996 
	C62.979107,258.000000 50.958210,258.000000 38.461155,257.632446 
	C34.712265,251.760391 31.299841,246.333359 28.194550,240.735931 
	C20.665300,227.164124 13.333669,213.482544 5.779719,199.924698 
	C4.562621,197.740234 2.611701,195.964615 0.999998,194.000000 
	C1.000000,164.979111 1.000000,135.958206 0.999999,106.468658 
z"/>
<path fill="#1E1E1E" opacity="1.000000" stroke="none" 
	d="
M325.468658,258.000000 
	C320.591766,255.358795 316.291321,252.513931 311.756104,250.112610 
	C294.585754,241.021194 277.564728,231.681458 262.642151,219.081039 
	C252.008469,210.102081 241.267227,201.192657 231.296722,191.508118 
	C225.445923,185.825119 221.010864,178.684555 216.151794,171.647614 
	C218.256332,169.853241 220.148071,168.610870 222.414169,167.122650 
	C221.147324,165.787888 220.280045,164.874100 219.381500,163.927383 
	C218.829330,164.257736 218.391006,164.473373 218.003922,164.758545 
	C212.214554,169.023758 205.750961,168.866440 201.355835,164.343063 
	C197.374008,160.245056 197.008423,154.248505 200.470291,149.817764 
	C204.311264,144.901840 210.347717,144.027817 216.583939,147.332138 
	C217.539505,147.838440 218.827728,147.716858 219.962097,147.885681 
	C222.511780,150.903992 225.061478,153.922287 228.112137,157.416519 
	C228.613113,162.463867 228.613113,167.035309 228.613113,172.077316 
	C233.474579,172.077316 237.736786,172.077316 241.998993,172.077316 
	C245.190018,175.963409 247.947769,180.335892 251.657028,183.640198 
	C261.053192,192.010513 270.448792,200.494614 280.634399,207.837631 
	C294.054535,217.512482 307.736023,227.013947 323.275482,233.182602 
	C338.032501,239.040665 352.810669,244.870422 367.759521,250.208588 
	C374.102295,252.473557 380.918915,253.394562 387.489349,255.048737 
	C389.651001,255.592957 391.715790,256.521973 393.912415,257.637512 
	C371.312439,258.000000 348.624878,258.000000 325.468658,258.000000 
z"/>
<path fill="#2D2D2D" opacity="1.000000" stroke="none" 
	d="
M297.003571,95.091125 
	C296.281067,93.293976 295.875702,91.272644 294.787872,89.733688 
	C280.972137,70.187813 271.834564,48.587135 266.691589,25.305973 
	C264.989105,17.599211 264.204346,9.689718 263.000000,1.436457 
	C273.020905,1.000000 283.041779,1.000000 293.544495,1.413419 
	C296.171265,11.824883 297.593597,22.046745 300.606842,31.775885 
	C307.571228,54.262226 319.521149,73.945259 336.150513,90.722786 
	C337.364258,91.947372 338.062805,93.682632 338.572449,95.238548 
	C335.678070,95.522011 333.156738,95.495476 330.757141,96.022804 
	C324.943115,97.300491 321.491608,101.940025 321.849121,107.587250 
	C322.152832,112.384415 325.559662,115.287506 331.911285,115.960693 
	C334.216980,116.205055 336.557800,116.102180 338.880432,116.206024 
	C342.279541,116.357986 345.404877,117.258568 345.720398,121.240715 
	C346.027802,125.119865 343.202240,126.734177 339.905731,127.541550 
	C334.963440,128.752029 330.383545,128.083939 326.293457,124.811867 
	C325.334015,124.044312 324.108917,123.608841 323.006042,123.020584 
	C321.925262,121.101677 321.089478,118.982239 319.715302,117.303490 
	C316.325470,113.162285 312.688599,109.223274 309.516174,104.892029 
	C311.078949,103.492920 312.276520,102.404778 313.624420,101.180069 
	C308.561798,96.524269 303.073761,95.001503 297.003571,95.091125 
z"/>
<path fill="#2F2F2F" opacity="1.000000" stroke="none" 
	d="
M339.000885,95.180466 
	C338.062805,93.682632 337.364258,91.947372 336.150513,90.722786 
	C319.521149,73.945259 307.571228,54.262226 300.606842,31.775885 
	C297.593597,22.046745 296.171265,11.824883 294.013123,1.413419 
	C300.687653,1.000000 307.375275,1.000000 314.531464,1.000000 
	C316.097015,12.214766 317.871277,23.262743 323.182983,33.408665 
	C328.065094,42.734039 332.103516,52.654408 338.078827,61.220901 
	C349.082092,76.995773 363.281219,89.380211 380.293549,98.951195 
	C395.069763,107.264175 410.684174,111.650528 427.580627,113.997833 
	C428.000000,120.021149 428.000000,126.042297 427.576355,132.529419 
	C425.363190,132.675293 423.583527,132.279404 421.782745,132.046616 
	C398.476074,129.033569 377.262817,120.796494 358.239288,106.907982 
	C355.500275,104.908348 352.239227,103.623863 349.205261,101.644814 
	C345.794159,99.247627 342.397522,97.214050 339.000885,95.180466 
z"/>
<path fill="#353535" opacity="1.000000" stroke="none" 
	d="
M428.000000,88.531342 
	C418.336090,86.167992 408.298767,84.221977 399.079132,80.335915 
	C372.650208,69.196152 355.750519,48.586151 345.185516,22.553797 
	C342.533234,16.018480 341.682404,8.752075 340.001831,1.410830 
	C350.354218,1.000000 360.708466,1.000000 371.542358,1.395813 
	C375.702698,19.231474 385.130615,33.163795 398.851318,44.104095 
	C407.328156,50.863178 417.091614,55.397003 428.000000,57.000000 
	C428.000000,67.354225 428.000000,77.708458 428.000000,88.531342 
z"/>
<path fill="#171717" opacity="1.000000" stroke="none" 
	d="
M144.522614,146.898148 
	C149.468643,154.508026 154.188034,162.277832 159.416519,169.688416 
	C166.371658,179.546295 173.393356,189.392441 180.993973,198.750198 
	C189.233795,208.895004 197.661331,218.990143 206.948715,228.152344 
	C216.234619,237.313065 226.706146,245.268967 236.593140,253.827866 
	C237.616058,254.713379 238.198074,256.108215 238.992340,257.633362 
	C223.645767,258.000000 208.291550,258.000000 192.461655,257.634216 
	C190.431030,255.237137 189.044556,253.043640 187.281540,251.212677 
	C184.645874,248.475372 181.509491,246.201706 179.000305,243.364471 
	C170.567581,233.829193 162.018173,224.370651 154.095169,214.419556 
	C147.944870,206.694931 142.664078,198.277985 137.449646,190.091522 
	C152.067963,190.135727 150.860825,190.337738 151.124527,178.254425 
	C151.240479,172.940948 149.914307,169.755966 143.843674,169.739563 
	C144.329605,169.328415 144.815521,168.917267 145.301453,168.506119 
	C143.958328,166.948837 142.615204,165.391556 140.362579,162.779770 
	C141.562988,158.196976 143.042801,152.547562 144.522614,146.898148 
z"/>
<path fill="#131313" opacity="1.000000" stroke="none" 
	d="
M136.996811,190.168777 
	C142.664078,198.277985 147.944870,206.694931 154.095169,214.419556 
	C162.018173,224.370651 170.567581,233.829193 179.000305,243.364471 
	C181.509491,246.201706 184.645874,248.475372 187.281540,251.212677 
	C189.044556,253.043640 190.431030,255.237137 191.992996,257.634216 
	C177.312439,258.000000 162.624878,258.000000 147.468658,258.000000 
	C142.933243,252.433594 138.889603,246.850098 134.794754,241.304428 
	C126.955170,230.687256 118.962776,220.180206 111.278252,209.452347 
	C106.966705,203.433258 103.144463,197.063690 99.512520,190.432770 
	C112.281120,190.065262 124.638969,190.117020 136.996811,190.168777 
z"/>
<path fill="#161616" opacity="1.000000" stroke="none" 
	d="
M93.212296,102.556801 
	C85.683449,81.739716 80.779884,60.287987 78.007568,38.356983 
	C76.472336,26.212208 75.341385,14.016326 74.014099,1.421740 
	C83.354225,1.000000 92.708458,1.000000 102.531342,1.000000 
	C103.640556,7.242932 104.189018,13.497039 104.944893,19.725977 
	C105.898987,27.588301 106.807487,35.466434 108.128159,43.271336 
	C109.694313,52.527058 111.613388,61.725624 113.531067,70.917343 
	C113.960449,72.975433 115.019394,74.902168 115.814621,77.677841 
	C115.840752,80.255081 115.840752,82.043869 115.840752,83.762863 
	C113.534477,84.483849 111.661026,85.069527 109.737427,85.670891 
	C109.820801,87.275047 109.895233,88.707077 109.981186,90.360878 
	C107.763878,90.948647 105.668221,91.366821 103.677162,92.077896 
	C102.233353,92.593536 100.597748,93.201614 99.626984,94.286743 
	C97.306602,96.880478 95.328560,99.780464 93.212296,102.556801 
z"/>
<path fill="#2E2D2D" opacity="1.000000" stroke="none" 
	d="
M349.219757,102.008423 
	C352.239227,103.623863 355.500275,104.908348 358.239288,106.907982 
	C377.262817,120.796494 398.476074,129.033569 421.782745,132.046616 
	C423.583527,132.279404 425.363190,132.675293 427.576355,132.997681 
	C428.000000,142.020889 428.000000,151.041794 428.000000,160.531342 
	C416.700867,158.863541 405.174347,157.521149 394.166016,154.369080 
	C382.982697,151.166855 372.161835,146.519104 361.474518,141.837219 
	C355.773560,139.339737 350.690002,135.432953 345.195038,131.712616 
	C350.596436,127.428391 352.304962,123.807899 350.920685,118.270966 
	C349.514709,112.647232 344.671295,111.949242 340.068665,111.159134 
	C338.121216,110.824821 336.079987,111.081055 334.096771,110.900352 
	C331.275513,110.643288 327.943237,110.554039 327.908478,106.680313 
	C327.873749,102.806389 330.786224,100.833939 334.192139,101.099915 
	C338.336792,101.423576 342.400360,102.786079 347.650482,103.955742 
	C347.566254,104.060234 348.393005,103.034332 349.219757,102.008423 
z"/>
<path fill="#393939" opacity="1.000000" stroke="none" 
	d="
M428.000000,56.531342 
	C417.091614,55.397003 407.328156,50.863178 398.851318,44.104095 
	C385.130615,33.163795 375.702698,19.231474 372.010986,1.395813 
	C390.593445,1.000000 409.186920,1.000000 428.000000,1.000000 
	C428.000000,19.353643 428.000000,37.708164 428.000000,56.531342 
z"/>
<path fill="#050505" opacity="1.000000" stroke="none" 
	d="
M0.999998,194.468658 
	C2.611701,195.964615 4.562621,197.740234 5.779719,199.924698 
	C13.333669,213.482544 20.665300,227.164124 28.194550,240.735931 
	C31.299841,246.333359 34.712265,251.760391 37.992496,257.632446 
	C25.720335,258.000000 13.440669,258.000000 1.000000,258.000000 
	C1.000000,236.979355 1.000000,215.958328 0.999998,194.468658 
z"/>
<path fill="#F8F8F8" opacity="1.000000" stroke="none" 
	d="
M222.376083,110.658386 
	C234.681900,112.311516 234.675873,112.311455 234.789459,100.806190 
	C234.802200,99.516205 234.931152,98.227371 235.019409,96.711639 
	C236.669479,96.711639 238.081558,96.711639 240.039047,96.711639 
	C240.039047,107.925240 240.039047,119.000641 240.112335,130.539886 
	C238.719406,131.828568 237.253174,132.653412 234.945435,133.951660 
	C234.945435,127.252693 234.945435,121.816200 234.945435,116.869942 
	C229.015091,116.530045 223.585922,116.264473 218.164139,115.891785 
	C214.667603,115.651436 212.879532,116.748573 213.193039,120.671097 
	C213.496384,124.466576 213.258789,128.305298 213.258789,132.485992 
	C211.491669,132.485992 209.976303,132.485992 208.233719,132.485992 
	C208.233719,120.603447 208.233719,108.842346 208.233719,96.732712 
	C209.716187,96.641327 211.133560,96.553947 213.152664,96.429474 
	C213.152664,101.261475 213.152664,105.809837 213.152664,110.284584 
	C216.489029,110.443451 219.238083,110.574356 222.376083,110.658386 
z"/>
<path fill="#F5F5F5" opacity="1.000000" stroke="none" 
	d="
M192.397949,132.318878 
	C189.711990,132.868317 187.282608,133.316711 184.841492,133.394043 
	C174.659668,133.716522 169.502777,127.760628 166.742065,119.356850 
	C164.067810,111.216171 167.413483,103.560883 175.908569,97.568253 
	C184.371460,93.841743 191.951660,94.919525 199.219345,100.881027 
	C198.216705,102.199974 197.270187,103.445091 196.360748,104.641457 
	C185.378540,99.415062 177.751297,100.167374 173.510818,106.735374 
	C169.659164,112.701157 170.519363,119.907372 175.617569,124.384476 
	C181.813202,129.825302 189.573441,129.344086 196.999023,122.723747 
	C198.050430,124.110283 199.078033,125.465431 200.466782,127.296844 
	C197.619537,129.026962 195.134354,130.537079 192.397949,132.318878 
z"/>
<path fill="#F5F5F5" opacity="1.000000" stroke="none" 
	d="
M220.062378,147.552856 
	C218.827728,147.716858 217.539505,147.838440 216.583939,147.332138 
	C210.347717,144.027817 204.311264,144.901840 200.470291,149.817764 
	C197.008423,154.248505 197.374008,160.245056 201.355835,164.343063 
	C205.750961,168.866440 212.214554,169.023758 218.003922,164.758545 
	C218.391006,164.473373 218.829330,164.257736 219.381500,163.927383 
	C220.280045,164.874100 221.147324,165.787888 222.414169,167.122650 
	C220.148071,168.610870 218.256332,169.853241 216.085999,171.259521 
	C203.619995,174.284302 196.233994,170.457947 193.350677,157.502045 
	C192.265076,152.623978 195.575836,148.406769 198.940704,144.430252 
	C205.515076,139.990143 212.134323,139.377640 218.720779,143.685257 
	C219.597137,144.258423 219.701019,146.012711 220.062378,147.552856 
z"/>
<path fill="#F8F8F8" opacity="1.000000" stroke="none" 
	d="
M267.915161,162.449936 
	C267.840271,155.394943 267.840271,148.786789 267.840271,141.918991 
	C273.953217,141.918991 279.418823,141.710663 284.860229,141.984039 
	C289.316650,142.207916 291.718750,144.997650 292.088074,149.420395 
	C292.499695,154.349792 290.164703,157.800003 285.777588,158.781311 
	C284.814941,158.996643 283.792023,159.005646 282.797058,159.003769 
	C269.959839,158.979477 272.657074,159.281708 272.558167,170.533295 
	C271.317047,171.343567 269.970886,171.701538 267.990021,172.228302 
	C267.990021,168.721252 267.990021,165.809006 267.915161,162.449936 
M277.804657,154.621109 
	C279.958649,154.532608 282.350525,154.990509 284.193634,154.188004 
	C285.753754,153.508698 287.488983,151.436584 287.617188,149.856674 
	C287.712189,148.686325 285.480072,146.412582 284.060883,146.211807 
	C280.363770,145.688782 276.543549,146.035858 272.688324,146.035858 
	C272.688324,149.356155 272.688324,152.216690 272.688324,155.215332 
	C274.352417,155.017822 275.661530,154.862457 277.804657,154.621109 
z"/>
<path fill="#F5F5F5" opacity="1.000000" stroke="none" 
	d="
M242.427277,171.983154 
	C237.736786,172.077316 233.474579,172.077316 228.613113,172.077316 
	C228.613113,167.035309 228.613113,162.463867 228.478485,157.442688 
	C228.343857,152.205841 228.343857,147.418732 228.343857,142.300461 
	C230.014420,142.063766 231.220322,141.892899 232.899872,141.654938 
	C232.899872,150.168304 232.899872,158.378479 232.899872,166.996948 
	C238.541702,166.996948 243.769882,166.996948 249.385529,166.996948 
	C250.752014,174.125198 245.372940,171.045288 242.427277,171.983154 
z"/>
<path fill="#FDFDFD" opacity="1.000000" stroke="none" 
	d="
M254.835205,144.466095 
	C255.814758,143.074127 256.875275,142.144318 257.935791,141.214508 
	C258.337006,141.492294 258.738251,141.770081 259.139465,142.047852 
	C259.139465,147.060318 259.139465,152.072769 259.232361,157.545044 
	C259.325256,162.442871 259.325256,166.880890 259.325256,171.259720 
	C256.209778,172.347519 254.846680,171.981964 254.896912,168.771500 
	C255.021255,160.825607 254.924240,152.876236 254.835205,144.466095 
z"/>
<path fill="#EDEDED" opacity="1.000000" stroke="none" 
	d="
M257.592529,96.228683 
	C263.927216,96.108452 269.850739,96.108452 276.039825,96.108452 
	C276.039825,98.391891 276.039825,99.954338 276.039825,101.888748 
	C269.374878,101.888748 262.970947,101.888748 256.325745,101.888748 
	C256.325745,105.492302 256.325745,108.730240 256.325745,111.710175 
	C261.044922,111.710175 265.651611,111.710175 270.704926,111.710175 
	C270.794434,113.255112 270.883606,114.794792 271.004913,116.888786 
	C268.168304,116.888786 265.718475,116.850853 263.270172,116.895943 
	C256.129517,117.027451 255.909683,117.270851 256.075409,124.560036 
	C256.093567,125.357773 256.189148,126.153748 256.283875,127.418289 
	C262.262177,127.418289 268.024567,127.352798 273.783630,127.461555 
	C275.340485,127.490967 276.887390,128.048126 278.650757,128.680420 
	C278.492767,131.045044 278.635986,133.100235 275.295258,132.983337 
	C267.361816,132.705734 259.412079,132.893997 251.120819,132.893997 
	C251.120819,120.696259 251.120819,108.727638 251.120819,96.348907 
	C253.247040,96.348907 255.214188,96.348907 257.592529,96.228683 
z"/>
<path fill="#EDEDED" opacity="1.000000" stroke="none" 
	d="
M328.163818,167.399719 
	C328.052429,158.857727 328.052429,150.717163 328.052429,142.173950 
	C335.396576,142.173950 342.271454,142.173950 349.273499,142.173950 
	C350.209778,144.671051 349.948578,146.276062 346.640533,146.067276 
	C344.650421,145.941666 342.645905,146.043686 340.647858,146.043381 
	C332.460663,146.042160 332.460663,146.042160 333.280426,154.302750 
	C337.012482,154.302750 340.735260,154.302750 344.765747,154.302750 
	C344.765747,155.521805 344.765747,156.861633 344.765747,158.174377 
	C332.526245,159.627869 332.526245,159.627869 333.385284,166.990677 
	C339.103943,166.990677 344.877380,166.990677 350.974060,166.990677 
	C350.974060,168.720993 350.974060,170.114059 350.974060,171.913773 
	C346.495270,171.913773 342.204407,171.913773 337.455475,172.004730 
	C335.398376,172.029892 333.770355,171.740784 332.206390,171.944305 
	C328.839386,172.382416 327.908142,170.771988 328.163818,167.399719 
z"/>
<path fill="#F5F5F5" opacity="1.000000" stroke="none" 
	d="
M298.420044,146.600754 
	C304.809357,139.149460 312.039398,138.841141 320.248047,146.718674 
	C318.723724,146.867493 317.180786,147.242340 315.678955,147.118454 
	C312.477142,146.854385 309.258301,145.874359 306.125916,146.136597 
	C304.846130,146.243744 303.202667,148.689240 302.855408,150.312790 
	C302.692261,151.075378 305.051483,152.891800 306.543091,153.367935 
	C308.548462,154.008057 310.823486,153.778748 312.976868,153.984451 
	C320.056702,154.660828 322.502045,157.794037 321.493805,165.369919 
	C315.341187,174.515320 304.029419,174.849182 296.622162,166.251892 
	C297.444244,165.360092 298.291840,164.440659 299.262878,163.387283 
	C303.494232,167.203598 308.077667,169.635864 313.437622,167.003632 
	C315.120422,166.177231 316.849548,163.731354 316.926971,161.955673 
	C316.978088,160.782608 314.293304,158.999023 312.520599,158.369217 
	C310.560059,157.672684 308.229340,158.090591 306.083160,157.830597 
	C299.045349,156.978012 296.929413,154.002136 298.420044,146.600754 
z"/>
<path fill="#F5F5F5" opacity="1.000000" stroke="none" 
	d="
M296.701538,95.281372 
	C303.073761,95.001503 308.561798,96.524269 313.624420,101.180069 
	C312.276520,102.404778 311.078949,103.492920 309.545776,104.517159 
	C305.359619,103.303513 301.567383,101.587875 297.639954,101.182655 
	C294.484344,100.857063 291.411957,103.188553 292.039520,106.621208 
	C292.350830,108.324089 295.438293,110.113167 297.596802,110.743393 
	C300.718170,111.654755 304.163879,111.382881 307.420807,111.920982 
	C311.309082,112.563393 314.244354,114.579323 314.942474,118.772949 
	C315.669861,123.142433 314.796265,126.987617 311.075165,129.899277 
	C303.463470,135.855194 291.969849,134.477081 284.359833,126.379417 
	C285.363281,125.226303 286.392792,124.043236 287.697540,122.543900 
	C292.159851,127.113228 297.351624,129.149200 303.541107,127.625534 
	C306.990509,126.776398 310.076782,125.220833 309.610870,121.042801 
	C309.170502,117.093903 305.973083,116.336914 302.587219,116.197014 
	C299.768341,116.080536 296.887878,116.224556 294.149536,115.677902 
	C290.106812,114.870842 286.455872,113.202110 285.867889,108.344124 
	C285.254944,103.279831 287.579102,99.680634 291.786713,97.218224 
	C293.185822,96.399414 294.854187,96.040680 296.701538,95.281372 
z"/>
<path fill="#F5F5F5" opacity="1.000000" stroke="none" 
	d="
M349.205261,101.644814 
	C348.393005,103.034332 347.566254,104.060234 347.650482,103.955742 
	C342.400360,102.786079 338.336792,101.423576 334.192139,101.099915 
	C330.786224,100.833939 327.873749,102.806389 327.908478,106.680313 
	C327.943237,110.554039 331.275513,110.643288 334.096771,110.900352 
	C336.079987,111.081055 338.121216,110.824821 340.068665,111.159134 
	C344.671295,111.949242 349.514709,112.647232 350.920685,118.270966 
	C352.304962,123.807899 350.596436,127.428391 344.869629,131.555237 
	C335.756805,134.684082 327.483215,134.453720 320.455261,126.523018 
	C321.195831,125.594208 321.955658,124.641296 322.860748,123.354492 
	C324.108917,123.608841 325.334015,124.044312 326.293457,124.811867 
	C330.383545,128.083939 334.963440,128.752029 339.905731,127.541550 
	C343.202240,126.734177 346.027802,125.119865 345.720398,121.240715 
	C345.404877,117.258568 342.279541,116.357986 338.880432,116.206024 
	C336.557800,116.102180 334.216980,116.205055 331.911285,115.960693 
	C325.559662,115.287506 322.152832,112.384415 321.849121,107.587250 
	C321.491608,101.940025 324.943115,97.300491 330.757141,96.022804 
	C333.156738,95.495476 335.678070,95.522011 338.572449,95.238556 
	C342.397522,97.214050 345.794159,99.247627 349.205261,101.644814 
z"/>
<path fill="#2E2D2D" opacity="1.000000" stroke="none" 
	d="
M373.412872,160.300171 
	C373.048218,158.856323 372.925079,157.577332 372.801941,156.298325 
	C373.752197,156.450821 374.702484,156.603302 375.652740,156.755783 
	C374.986633,157.992188 374.320526,159.228607 373.412872,160.300171 
z"/>
<path fill="#FDFDFD" opacity="1.000000" stroke="none" 
	d="
M93.051987,102.834152 
	C95.328560,99.780464 97.306602,96.880478 99.626984,94.286743 
	C100.597748,93.201614 102.233353,92.593536 103.677162,92.077896 
	C105.668221,91.366821 107.763878,90.948647 109.981186,90.360878 
	C109.895233,88.707077 109.820801,87.275047 109.737427,85.670891 
	C111.661026,85.069527 113.534477,84.483849 115.840752,83.762863 
	C115.840752,82.043869 115.840752,80.255081 115.890671,78.014557 
	C122.396530,81.631866 128.940063,85.569504 135.288177,89.800346 
	C145.143051,96.368324 148.818054,106.325287 150.010773,117.559570 
	C151.082703,127.656212 147.974197,136.965805 144.613281,146.575073 
	C143.042801,152.547562 141.562988,158.196976 140.362579,162.779770 
	C142.615204,165.391556 143.958328,166.948837 145.301453,168.506119 
	C144.815521,168.917267 144.329605,169.328415 143.843674,169.739563 
	C149.914307,169.755966 151.240479,172.940948 151.124527,178.254425 
	C150.860825,190.337738 152.067963,190.135727 137.449646,190.091522 
	C124.638969,190.117020 112.281120,190.065262 99.460098,190.091125 
	C85.589142,189.931229 86.999367,189.656631 87.039009,177.130325 
	C87.044533,175.384918 87.653267,173.641434 88.119339,171.499863 
	C89.983864,170.582657 91.711800,170.062653 93.439735,169.542648 
	C93.152855,169.299164 92.865967,169.055695 92.579079,168.812210 
	C93.779999,167.293396 94.980919,165.774597 96.181839,164.255798 
	C95.737427,146.931427 108.586159,136.154663 118.343109,123.750710 
	C113.330353,122.800415 108.884956,121.501373 104.391373,121.305046 
	C102.256546,121.211777 99.830597,122.943024 97.885757,124.335503 
	C93.687439,127.341415 87.828949,128.052521 83.840454,125.648346 
	C79.839470,123.236633 79.527428,114.963387 83.527176,111.087471 
	C86.465660,108.239960 89.757370,105.756950 93.051987,102.834152 
z"/>
<path fill="#F5F5F5" opacity="1.000000" stroke="none" 
	d="
M170.546173,141.685226 
	C176.123657,141.592545 181.250351,141.592545 186.687241,141.592545 
	C186.805771,143.199371 186.895645,144.417847 187.026596,146.193085 
	C181.357071,146.193085 175.968124,146.193085 170.194382,146.193085 
	C170.194382,148.844574 170.194382,150.965149 170.199203,153.777130 
	C170.637146,154.422699 171.070267,154.376892 171.503387,154.331085 
	C174.865295,154.331085 178.227203,154.331085 181.861221,154.331085 
	C181.861221,155.499557 181.861221,156.725021 181.307129,158.268143 
	C169.702698,158.480362 169.493118,158.649490 170.655319,166.989655 
	C176.413055,166.989655 182.206421,166.989655 187.999786,166.989655 
	C188.286530,167.479202 188.573273,167.968750 188.966583,168.729645 
	C188.259903,169.954041 187.473404,171.705505 186.629196,171.733765 
	C179.875534,171.959885 173.110962,171.860077 166.125839,171.860077 
	C166.125839,161.667099 166.125839,151.946442 166.125839,141.777908 
	C167.539398,141.777908 168.817398,141.777908 170.546173,141.685226 
z"/>
<path fill="#1A1A1A" opacity="1.000000" stroke="none" 
	d="
M187.956787,166.638458 
	C182.206421,166.989655 176.413055,166.989655 170.655319,166.989655 
	C169.493118,158.649490 169.702698,158.480362 181.178589,158.686081 
	C183.707367,161.286682 185.810562,163.786972 187.956787,166.638458 
z"/>
<path fill="#393939" opacity="1.000000" stroke="none" 
	d="
M171.228424,154.186783 
	C171.070267,154.376892 170.637146,154.422699 170.271393,154.211212 
	C170.543671,153.983414 170.748566,154.012939 171.228424,154.186783 
z"/>
<path fill="#353535" opacity="1.000000" stroke="none" 
	d="
M277.387634,154.664093 
	C275.661530,154.862457 274.352417,155.017822 272.688324,155.215332 
	C272.688324,152.216690 272.688324,149.356155 272.688324,146.035858 
	C276.543549,146.035858 280.363770,145.688782 284.060883,146.211807 
	C285.480072,146.412582 287.712189,148.686325 287.617188,149.856674 
	C287.488983,151.436584 285.753754,153.508698 284.193634,154.188004 
	C282.350525,154.990509 279.958649,154.532608 277.387634,154.664093 
z"/>
</svg>

